# xmcd
#
# Track frame offsets:
#	150
#	19350
#	40947
#	57422
#	72445
#	87595
#	102917
#	120525
#	136927
#	151065
#	164925
#
# Disc length: 2442 seconds
#
# Revision: 3
# Processed by: cddbd v1.5.2PL0 Copyright (c) Steve Scherf et al.
# Submitted via: EasyCDDAExtractor 12.0.0.1
#
DISCID=9b09880b
DTITLE=Neil Sedaka - The Tra-La Days Are Over
DYEAR=1991
DGENRE=Easy Listening
TTITLE0=Little Brother
TTITLE1=Standing On The Inside
TTITLE2=Alone In New York In The Rain
TTITLE3=Caribbean Rainbow
TTITLE4=Let Daddy Know
TTITLE5=Suspicions
TTITLE6=Love Will Keep Us Together
TTITLE7=The Other Side Of Me
TTITLE8=Rock and Roll Wedding Day
TTITLE9=For peace and love
TTITLE10=Our last song together
EXTD=
EXTT0=
EXTT1=
EXTT2=
EXTT3=
EXTT4=
EXTT5=
EXTT6=
EXTT7=
EXTT8=
EXTT9=
EXTT10=
PLAYORDER=
